<?xml version="1.0" standalone="no"?>
<!DOCTYPE svg PUBLIC "-//W3C//DTD SVG 20010904//EN"
 "http://www.w3.org/TR/2001/REC-SVG-20010904/DTD/svg10.dtd">
<svg version="1.0" xmlns="http://www.w3.org/2000/svg"
 width="512.000000pt" height="512.000000pt" viewBox="0 0 512.000000 512.000000"
 preserveAspectRatio="xMidYMid meet">

<g transform="translate(0.000000,512.000000) scale(0.100000,-0.100000)"
fill="#000000" stroke="none">
<path d="M2205 5108 c-11 -6 -23 -16 -27 -22 -14 -20 -8 -80 17 -176 14 -52
25 -98 25 -102 0 -5 -17 -8 -37 -8 -49 0 -112 -36 -136 -77 -11 -19 -19 -52
-19 -79 0 -39 -2 -44 -16 -38 -9 3 -44 13 -77 21 -152 37 -316 -32 -387 -164
-48 -87 -61 -155 -55 -273 8 -160 67 -299 171 -406 l51 -52 -157 -42 c-267
-72 -424 -148 -537 -260 -37 -37 -80 -92 -99 -127 -181 -343 -112 -1208 179
-2228 87 -303 276 -862 323 -952 22 -43 88 -97 135 -111 55 -17 1947 -17 2002
0 49 14 114 69 138 117 29 55 152 402 224 631 369 1159 477 2161 275 2543 -42
79 -135 172 -225 226 -115 68 -224 109 -468 176 -126 34 -248 70 -270 79 -86
36 -160 142 -186 265 -17 84 -5 330 24 476 25 125 23 164 -7 210 -21 33 -86
65 -131 65 -19 0 -35 3 -35 8 0 4 11 50 25 102 25 96 31 156 17 176 -20 31
-54 34 -384 34 -229 -1 -339 -4 -353 -12z m575 -150 c0 -7 -9 -44 -18 -83
l-18 -70 -184 0 -184 0 -18 70 c-9 39 -18 76 -18 83 0 9 51 12 220 12 169 0
220 -3 220 -12z m157 -345 c-3 -21 -14 -78 -24 -128 -13 -68 -17 -137 -17
-280 0 -173 2 -196 23 -255 54 -153 142 -258 254 -303 36 -15 143 -47 239 -72
231 -61 317 -90 416 -138 88 -43 188 -126 228 -188 29 -46 58 -139 76 -239 17
-96 16 -474 -1 -630 -57 -523 -195 -1115 -404 -1735 -127 -374 -155 -448 -183
-472 l-25 -23 -959 0 -959 0 -25 23 c-26 24 -64 119 -173 442 -219 650 -356
1232 -414 1765 -19 173 -17 555 3 655 34 165 63 221 157 307 104 93 228 145
559 233 198 52 257 74 318 116 85 58 162 189 191 322 18 88 12 359 -11 477 -9
41 -18 94 -22 118 l-7 42 383 0 383 0 -6 -37z m-978 -153 c47 -24 75 -55 100
-110 17 -36 21 -66 21 -155 0 -159 -29 -258 -101 -340 -26 -30 -37 -35 -73
-35 -82 0 -187 101 -238 228 -18 47 -22 76 -23 167 0 99 3 116 25 159 28 54
57 80 116 102 47 17 122 11 173 -16z"/>
<path d="M3553 3320 c-28 -26 -31 -80 -5 -102 9 -9 52 -30 95 -48 74 -30 109
-58 170 -129 31 -37 99 -22 118 25 24 65 -61 162 -199 227 -107 50 -149 56
-179 27z"/>
<path d="M3852 2852 c-16 -16 -20 -43 -26 -193 -7 -194 -24 -355 -62 -587 -27
-171 -24 -199 22 -221 31 -14 89 7 98 36 10 33 55 325 71 458 8 72 17 207 21
300 6 165 6 171 -15 198 -27 33 -81 37 -109 9z"/>
<path d="M2671 2788 c-126 -22 -191 -127 -191 -306 0 -53 0 -54 -27 -48 -336
69 -531 36 -685 -117 -113 -112 -169 -257 -169 -442 0 -55 5 -125 11 -155 38
-197 146 -393 307 -558 132 -134 237 -199 400 -248 79 -24 104 -27 248 -27
145 0 168 3 250 27 115 35 202 81 301 160 179 144 326 361 386 571 19 67 23
104 23 225 0 127 -3 154 -25 220 -36 110 -109 213 -198 276 -139 101 -286 124
-525 85 -70 -12 -130 -21 -132 -21 -3 0 -5 38 -5 85 0 98 11 117 76 129 53 10
74 31 74 76 0 60 -40 82 -119 68z m-326 -488 c66 -11 123 -20 128 -20 11 0 8
-90 -3 -90 -6 0 -36 9 -67 20 -32 11 -70 20 -85 20 -58 0 -91 -78 -51 -122 9
-10 59 -32 112 -49 137 -45 239 -45 371 0 102 35 130 57 130 102 0 58 -59 85
-127 58 -15 -6 -47 -17 -70 -24 l-43 -13 0 48 0 48 142 22 c243 38 357 18 466
-84 121 -114 163 -308 111 -517 -73 -290 -342 -581 -595 -643 -210 -52 -442
-16 -603 93 -134 91 -286 277 -351 429 -102 239 -77 491 62 631 107 107 231
131 473 91z"/>
<path d="M1340 1568 c-26 -28 -25 -48 6 -171 89 -355 256 -869 291 -894 41
-31 113 5 113 56 0 15 -18 81 -40 146 -71 208 -160 504 -205 680 -48 182 -61
205 -116 205 -16 0 -37 -9 -49 -22z"/>
</g>
</svg>