<?xml version="1.0" standalone="no"?>
<!DOCTYPE svg PUBLIC "-//W3C//DTD SVG 20010904//EN"
 "http://www.w3.org/TR/2001/REC-SVG-20010904/DTD/svg10.dtd">
<svg version="1.0" xmlns="http://www.w3.org/2000/svg"
 width="256.000000pt" height="256.000000pt" viewBox="0 0 256.000000 256.000000"
 preserveAspectRatio="xMidYMid meet">

<g transform="translate(0.000000,256.000000) scale(0.100000,-0.100000)"
fill="#000000" stroke="none">
<path d="M1470 2328 l-225 -144 -3 -110 -3 -111 -286 -6 c-225 -5 -289 -9
-300 -20 -12 -12 -11 -57 6 -314 27 -381 27 -378 -5 -448 -25 -54 -28 -57 -41
-39 -67 94 -182 163 -285 171 -86 7 -96 -4 -79 -94 7 -36 23 -87 36 -113 l24
-47 -26 -14 c-43 -23 -121 -117 -152 -182 -34 -72 -51 -147 -51 -220 0 -78 45
-250 86 -329 42 -79 134 -170 204 -201 57 -26 159 -28 216 -5 37 15 45 15 100
1 78 -21 720 -31 849 -14 288 39 552 192 726 420 72 96 155 268 184 383 30
122 43 271 25 293 -11 13 -55 15 -307 15 l-294 0 6 48 c3 26 14 190 26 365 16
248 18 321 9 333 -8 9 -31 14 -61 14 l-49 0 0 -40 c0 -33 3 -40 19 -40 17 0
19 -6 14 -62 -2 -35 -6 -68 -8 -74 -5 -18 -145 -91 -210 -109 -65 -19 -203
-17 -262 5 l-33 12 0 114 0 114 120 0 120 0 0 40 0 40 -120 0 -120 0 0 89 0
89 210 133 c116 74 210 136 210 139 0 3 -10 18 -23 33 l-22 28 -225 -143z
m-230 -542 l0 -94 -95 5 c-123 8 -193 -8 -311 -69 l-94 -48 -1 38 c0 20 -4 84
-8 142 -5 58 -6 108 -4 113 2 4 119 7 259 7 l254 0 0 -94z m574 -269 c-4 -63
-10 -121 -14 -127 -4 -7 -20 -4 -51 9 -64 29 -112 27 -149 -6 -25 -23 -36 -46
-55 -123 -29 -115 -64 -203 -116 -292 -64 -110 -199 -268 -228 -268 -5 0 -11
19 -15 42 -16 102 -123 255 -207 298 -84 43 -165 35 -244 -25 -45 -35 -45 -35
-45 -11 0 42 47 166 84 222 l36 53 -25 20 c-23 17 -26 27 -28 101 l-2 82 75
44 c98 57 185 84 269 84 74 0 115 -9 211 -47 81 -32 212 -42 301 -23 33 7 93
30 132 50 40 20 73 36 75 35 1 -1 -1 -54 -4 -118z m-84 -197 c26 -13 42 -29
46 -47 15 -56 -5 -316 -31 -419 -86 -340 -316 -580 -640 -667 -62 -16 -108
-21 -205 -21 -143 0 -251 22 -369 75 l-71 32 0 42 c0 40 2 43 31 49 17 3 51 6
74 6 23 0 82 7 131 15 455 78 818 415 923 854 11 44 22 85 26 91 10 16 42 12
85 -10z m-1308 -121 c53 -27 105 -75 133 -123 27 -47 48 -116 35 -116 -28 0
-122 45 -158 75 -41 35 -102 141 -102 177 0 15 5 17 28 12 15 -4 44 -15 64
-25z m1828 -122 c0 -63 -35 -190 -74 -274 -123 -259 -335 -423 -630 -488 -28
-6 -26 -3 27 55 158 170 253 388 278 636 l12 114 193 0 194 0 0 -43z m145 -19
c-36 -343 -249 -645 -558 -797 -130 -63 -253 -92 -422 -98 l-140 -5 55 30 c43
23 78 32 157 41 231 27 421 117 574 271 148 150 250 359 266 546 l6 74 34 0
35 0 -7 -62z m-1457 -79 c83 -40 162 -168 178 -287 l6 -50 -43 -28 c-148 -93
-319 -146 -535 -164 -76 -6 -145 -17 -152 -22 -9 -8 -12 -38 -10 -107 l3 -96
53 -28 c62 -34 62 -43 1 -27 -77 21 -163 100 -212 195 -27 53 -67 218 -67 276
0 119 78 275 164 328 l36 22 37 -30 c52 -41 120 -69 191 -79 72 -10 97 -2 162
53 48 41 93 64 124 65 11 0 40 -10 64 -21z"/>
<path d="M1920 1000 l0 -40 40 0 40 0 0 40 0 40 -40 0 -40 0 0 -40z"/>
<path d="M1920 760 l0 -40 40 0 40 0 0 40 0 40 -40 0 -40 0 0 -40z"/>
<path d="M1800 600 l0 -40 40 0 40 0 0 40 0 40 -40 0 -40 0 0 -40z"/>
<path d="M1640 1920 l0 -40 40 0 40 0 0 40 0 40 -40 0 -40 0 0 -40z"/>
</g>
</svg>
